<svg xmlns="http://www.w3.org/2000/svg" xmlns:xlink="http://www.w3.org/1999/xlink" zoomAndPan="magnify" preserveAspectRatio="xMidYMid meet" version="1.0" viewBox="86.6 170.59 200.38 44.66"><defs><g/></defs><g fill="#c9e265" fill-opacity="1"><g transform="translate(86.602316, 215.249986)"><g><path d="M 21.210938 -8.316406 L 8.539062 -8.316406 L 8.539062 -18.367188 L 26.070312 -18.367188 C 26.402344 -18.367188 26.683594 -18.644531 26.683594 -18.867188 L 26.683594 -25.957031 C 26.683594 -26.238281 26.402344 -26.460938 26.070312 -26.460938 L 8.539062 -26.460938 L 8.539062 -36.5625 L 21.210938 -36.5625 L 21.210938 -44.65625 L 0.613281 -44.65625 C 0.277344 -44.65625 0 -44.378906 0 -44.15625 L 0 -0.503906 C 0 -0.277344 0.277344 0 0.613281 0 L 21.210938 0 Z M 21.210938 -8.316406 "/></g></g></g><g fill="#c9e265" fill-opacity="1"><g transform="translate(114.622154, 215.249986)"><g><path d="M 25.511719 -8.207031 C 20.097656 -7.984375 8.597656 -8.539062 8.597656 -22.328125 C 8.597656 -32.933594 15.796875 -37.011719 25.511719 -36.507812 L 25.511719 -26.628906 L 34.050781 -26.628906 L 34.050781 -44.15625 C 34.050781 -44.378906 33.828125 -44.65625 33.4375 -44.65625 L 26.179688 -44.65625 C 15.238281 -44.65625 0 -42.144531 0 -22.328125 C 0 -3.238281 15.070312 0 26.179688 0 L 33.4375 0 C 33.828125 0 34.050781 -0.277344 34.050781 -0.503906 L 34.050781 -8.207031 Z M 25.511719 -8.207031 "/></g></g></g><g fill="#c9e265" fill-opacity="1"><g transform="translate(150.400468, 215.249986)"><g><path d="M 8.539062 -25.289062 L 8.539062 -44.15625 C 8.539062 -44.378906 8.316406 -44.65625 7.925781 -44.65625 L 0.613281 -44.65625 C 0.277344 -44.65625 0 -44.378906 0 -44.15625 L 0 -25.289062 Z M 33.382812 -44.65625 L 26.070312 -44.65625 C 25.734375 -44.65625 25.453125 -44.378906 25.453125 -44.15625 L 25.453125 -16.691406 L 8.539062 -16.691406 L 8.539062 -16.746094 L 0 -16.746094 L 0 -0.503906 C 0 -0.277344 0.277344 0 0.613281 0 L 7.925781 0 C 8.316406 0 8.539062 -0.277344 8.539062 -0.503906 L 8.539062 -8.375 L 25.453125 -8.375 L 25.453125 -0.503906 C 25.453125 -0.277344 25.734375 0 26.070312 0 L 33.382812 0 C 33.773438 0 33.996094 -0.277344 33.996094 -0.503906 L 33.996094 -44.15625 C 33.996094 -44.378906 33.773438 -44.65625 33.382812 -44.65625 Z M 33.382812 -44.65625 "/></g></g></g><g fill="#c9e265" fill-opacity="1"><g transform="translate(186.12297, 215.249986)"><g><path d="M 25.679688 -22.21875 C 25.679688 -24.5625 23.835938 -26.460938 21.492188 -26.460938 C 19.148438 -26.460938 17.304688 -24.5625 17.304688 -22.21875 C 17.304688 -19.929688 19.148438 -18.03125 21.492188 -18.03125 C 23.835938 -18.03125 25.679688 -19.929688 25.679688 -22.21875 Z M 42.984375 -22.386719 C 42.984375 -33.492188 35.78125 -44.65625 21.546875 -44.65625 C 7.089844 -44.65625 0 -33.492188 0 -22.386719 C 0 -11.21875 7.089844 0 21.546875 0 C 35.78125 0 42.984375 -11.21875 42.984375 -22.386719 Z M 34.609375 -22.21875 C 34.609375 -15.015625 30.199219 -7.816406 21.546875 -7.816406 C 12.785156 -7.816406 8.429688 -15.015625 8.429688 -22.21875 C 8.429688 -29.53125 12.785156 -36.785156 21.546875 -36.785156 C 30.199219 -36.785156 34.609375 -29.53125 34.609375 -22.21875 Z M 34.609375 -22.21875 "/></g></g></g><g fill="#c9e265" fill-opacity="1"><g transform="translate(231.222633, 215.249986)"><g><path d="M 21.210938 -8.316406 L 8.539062 -8.316406 L 8.539062 -18.367188 L 26.070312 -18.367188 C 26.402344 -18.367188 26.683594 -18.644531 26.683594 -18.867188 L 26.683594 -25.957031 C 26.683594 -26.238281 26.402344 -26.460938 26.070312 -26.460938 L 8.539062 -26.460938 L 8.539062 -36.5625 L 21.210938 -36.5625 L 21.210938 -44.65625 L 0.613281 -44.65625 C 0.277344 -44.65625 0 -44.378906 0 -44.15625 L 0 -0.503906 C 0 -0.277344 0.277344 0 0.613281 0 L 21.210938 0 Z M 21.210938 -8.316406 "/></g></g></g><g fill="#c9e265" fill-opacity="1"><g transform="translate(259.242472, 215.249986)"><g><path d="M 20.488281 -24.785156 C 17.304688 -26.292969 14.179688 -26.292969 13.898438 -26.292969 C 11.054688 -26.292969 8.316406 -27.96875 8.316406 -31.203125 C 8.316406 -34.777344 10.828125 -36.621094 13.898438 -36.621094 C 16.800781 -36.621094 19.257812 -35.113281 19.371094 -31.929688 C 19.371094 -31.761719 19.648438 -31.484375 19.984375 -31.484375 L 26.960938 -31.484375 C 27.351562 -31.484375 27.632812 -31.761719 27.578125 -31.929688 C 27.464844 -39.523438 21.546875 -44.65625 13.898438 -44.65625 C 6.753906 -44.65625 0 -39.578125 0 -31.203125 C 0 -26.011719 2.625 -22.050781 7.257812 -19.929688 C 10.496094 -18.421875 13.507812 -18.421875 13.898438 -18.421875 C 16.410156 -18.308594 19.480469 -16.300781 19.480469 -13.007812 C 19.480469 -10.046875 16.859375 -8.039062 13.898438 -8.039062 C 13.898438 -8.039062 13.898438 -8.039062 13.84375 -8.039062 L 13.84375 0 C 13.898438 0 13.898438 0 13.898438 0 C 21.046875 0 27.742188 -4.632812 27.742188 -13.007812 C 27.742188 -18.253906 25.175781 -22.609375 20.488281 -24.785156 Z M 20.488281 -24.785156 "/></g></g></g></svg>